<?xml version="1.0" encoding="utf-8" standalone="no"?>
<!DOCTYPE svg PUBLIC "-//W3C//DTD SVG 1.1//EN"
  "http://www.w3.org/Graphics/SVG/1.1/DTD/svg11.dtd">
<!-- Created with matplotlib (http://matplotlib.org/) -->
<svg height="432pt" version="1.1" viewBox="0 0 576 432" width="576pt" xmlns="http://www.w3.org/2000/svg" xmlns:xlink="http://www.w3.org/1999/xlink">
 <defs>
  <style type="text/css">
*{stroke-linecap:butt;stroke-linejoin:round;stroke-miterlimit:100000;}
  </style>
 </defs>
 <g id="figure_1">
  <g id="patch_1">
   <path d="M 0 432 
L 576 432 
L 576 0 
L 0 0 
z
" style="fill:#ffffff;"/>
  </g>
  <g id="axes_1">
   <g id="patch_2">
    <path d="M 72 388.8 
L 518.4 388.8 
L 518.4 43.2 
L 72 43.2 
z
" style="fill:#ffffff;"/>
   </g>
   <g id="line2d_1">
    <path clip-path="url(#p984191fd67)" d="M 72.372 214.143977 
L 72.744 214.987624 
L 73.488 214.987624 
L 73.86 214.5658 
L 74.232 214.987624 
L 74.604 214.143977 
L 74.976 213.722153 
L 75.72 215.409447 
L 76.092 215.831271 
L 76.464 216.674918 
L 76.836 217.940388 
L 77.208 217.940388 
L 77.952 219.627682 
L 78.324 218.784035 
L 78.696 218.362212 
L 79.068 217.518565 
L 79.44 218.784035 
L 79.812 219.205859 
L 80.184 218.362212 
L 80.556 215.831271 
L 80.928 208.660271 
L 81.3 194.740095 
L 81.672 212.034859 
L 82.416 199.801977 
L 82.788 200.223801 
L 83.16 203.598389 
L 83.532 209.925741 
L 83.904 207.3948 
L 84.648 185.881802 
L 85.02 177.023508 
L 86.136 140.324863 
L 86.508 139.481216 
L 87.624 242.406152 
L 87.996 251.264445 
L 88.74 253.795386 
L 89.112 252.108092 
L 89.484 244.937093 
L 90.6 216.674918 
L 92.088 185.038155 
L 93.576 152.557744 
L 93.948 142.855804 
L 94.32 137.793922 
L 94.692 140.324863 
L 95.064 149.183156 
L 95.436 163.946979 
L 96.18 208.660271 
L 97.296 280.370267 
L 97.668 295.555914 
L 98.04 303.992384 
L 98.412 305.679678 
L 98.784 304.414207 
L 99.156 298.086855 
L 99.528 285.010326 
L 99.9 259.700915 
L 100.644 191.787331 
L 101.016 170.696155 
L 101.388 170.274332 
L 101.76 225.533211 
L 102.504 263.497327 
L 103.248 274.886562 
L 103.62 264.340974 
L 104.364 227.220505 
L 104.736 220.471329 
L 105.108 219.205859 
L 105.48 218.784035 
L 105.852 212.034859 
L 106.224 212.456683 
L 106.596 214.987624 
L 106.968 215.409447 
L 107.34 214.5658 
L 107.712 215.409447 
L 108.084 214.5658 
L 109.2 214.5658 
L 109.572 214.143977 
L 109.944 214.987624 
L 110.316 213.722153 
L 110.688 213.722153 
L 111.06 213.30033 
L 111.432 214.987624 
L 111.804 213.722153 
L 112.176 213.722153 
L 112.548 214.143977 
L 112.92 214.143977 
L 113.292 214.5658 
L 113.664 214.143977 
L 114.408 214.987624 
L 114.78 215.831271 
L 115.152 215.831271 
L 115.524 215.409447 
L 115.896 215.831271 
L 116.268 215.409447 
L 116.64 216.253094 
L 117.012 216.253094 
L 117.756 215.409447 
L 118.872 215.409447 
L 119.244 214.5658 
L 119.616 214.5658 
L 119.988 213.722153 
L 120.36 214.143977 
L 120.732 214.143977 
L 121.104 213.30033 
L 121.476 214.5658 
L 122.22 214.5658 
L 122.592 216.674918 
L 122.964 216.253094 
L 123.336 217.518565 
L 123.708 218.362212 
L 124.452 220.893153 
L 124.824 220.471329 
L 125.196 215.831271 
L 125.568 213.30033 
L 125.94 202.332918 
L 126.312 215.409447 
L 127.056 201.067448 
L 127.428 202.754742 
L 128.172 193.474625 
L 128.544 182.929037 
L 129.288 154.245038 
L 130.032 115.015452 
L 130.404 118.811864 
L 131.52 239.875211 
L 132.264 279.52662 
L 132.636 290.494031 
L 133.008 291.337679 
L 133.38 282.901208 
L 134.496 243.671622 
L 135.612 203.176565 
L 135.984 192.209154 
L 136.728 180.398096 
L 137.472 172.805273 
L 137.844 167.743391 
L 138.216 166.056097 
L 138.588 165.634273 
L 138.96 166.056097 
L 139.332 169.852508 
L 139.704 179.132625 
L 140.076 193.052801 
L 140.82 239.453387 
L 141.564 291.337679 
L 142.308 325.505383 
L 142.68 336.05097 
L 143.052 337.738264 
L 143.424 328.036324 
L 143.796 306.945148 
L 144.168 272.355621 
L 145.284 120.499158 
L 145.656 102.360747 
L 146.028 109.95357 
L 146.4 146.230392 
L 146.772 225.111388 
L 147.144 237.766093 
L 147.516 259.279092 
L 147.888 267.293739 
L 148.26 281.635738 
L 148.632 275.308385 
L 149.376 228.485976 
L 149.748 219.627682 
L 150.12 220.049506 
L 150.492 218.784035 
L 151.236 209.503918 
L 151.608 209.503918 
L 151.98 210.347565 
L 152.352 214.5658 
L 152.724 213.722153 
L 153.096 215.831271 
L 153.468 215.831271 
L 153.84 215.409447 
L 154.212 215.409447 
L 154.584 214.5658 
L 154.956 214.987624 
L 155.328 214.143977 
L 156.072 213.30033 
L 156.444 213.722153 
L 156.816 214.5658 
L 157.188 214.5658 
L 157.56 214.987624 
L 157.932 214.987624 
L 158.304 215.409447 
L 158.676 215.409447 
L 159.048 216.674918 
L 159.42 215.409447 
L 159.792 214.5658 
L 160.164 215.409447 
L 160.536 214.5658 
L 160.908 214.5658 
L 161.28 214.987624 
L 161.652 214.987624 
L 162.396 215.831271 
L 162.768 214.987624 
L 163.14 214.987624 
L 163.512 214.5658 
L 163.884 214.5658 
L 164.256 214.987624 
L 164.628 214.143977 
L 165 214.5658 
L 165.744 214.5658 
L 166.116 214.987624 
L 166.488 214.143977 
L 167.232 214.987624 
L 167.604 214.5658 
L 167.976 214.5658 
L 168.348 214.987624 
L 168.72 216.253094 
L 169.092 216.674918 
L 169.464 216.253094 
L 169.836 216.674918 
L 170.208 216.253094 
L 170.58 216.253094 
L 170.952 215.409447 
L 171.324 215.831271 
L 171.696 215.831271 
L 172.812 219.627682 
L 173.556 218.784035 
L 173.928 221.314976 
L 174.3 229.751446 
L 174.672 219.205859 
L 175.044 201.489271 
L 175.416 222.158623 
L 175.788 212.034859 
L 176.16 209.925741 
L 176.532 205.707506 
L 176.904 205.707506 
L 177.276 208.660271 
L 177.648 205.285683 
L 178.02 212.456683 
L 178.392 213.30033 
L 179.136 201.489271 
L 179.508 182.929037 
L 180.252 162.681509 
L 180.624 161.416038 
L 180.996 196.849213 
L 181.74 298.930502 
L 182.112 314.959795 
L 182.484 312.850677 
L 182.856 304.414207 
L 183.6 276.573856 
L 185.088 214.987624 
L 185.46 205.707506 
L 186.204 195.583742 
L 186.948 186.725449 
L 188.436 141.590333 
L 188.808 133.99751 
L 189.18 131.466569 
L 189.552 136.528451 
L 190.296 172.383449 
L 192.156 274.042915 
L 192.9 301.039619 
L 193.272 305.679678 
L 193.644 303.148737 
L 194.016 295.555914 
L 194.388 279.52662 
L 194.76 251.686269 
L 195.876 128.513804 
L 196.248 117.968217 
L 196.62 134.841157 
L 196.992 182.507213 
L 197.364 252.951739 
L 197.736 274.464738 
L 198.108 278.26115 
L 198.48 271.511974 
L 199.224 220.471329 
L 199.596 210.347565 
L 199.968 212.456683 
L 200.34 217.096741 
L 200.712 216.253094 
L 201.084 211.613036 
L 201.456 209.082094 
L 201.828 209.925741 
L 202.2 206.972977 
L 202.572 213.722153 
L 202.944 216.253094 
L 204.06 216.253094 
L 204.432 215.409447 
L 204.804 215.409447 
L 205.176 214.5658 
L 205.548 214.143977 
L 205.92 214.987624 
L 206.292 214.5658 
L 207.408 214.5658 
L 207.78 214.987624 
L 208.152 214.5658 
L 208.524 214.987624 
L 209.268 214.143977 
L 209.64 215.409447 
L 210.012 214.5658 
L 210.756 215.409447 
L 211.128 214.987624 
L 211.5 215.409447 
L 212.244 214.5658 
L 212.616 215.409447 
L 212.988 215.409447 
L 213.36 214.5658 
L 213.732 214.987624 
L 214.104 213.722153 
L 214.476 214.5658 
L 214.848 214.987624 
L 215.22 214.5658 
L 215.592 214.5658 
L 215.964 215.409447 
L 216.336 214.987624 
L 216.708 214.987624 
L 217.08 214.143977 
L 218.196 215.409447 
L 218.568 215.409447 
L 218.94 215.831271 
L 219.312 214.987624 
L 219.684 215.409447 
L 220.056 214.987624 
L 220.428 214.987624 
L 220.8 215.409447 
L 221.172 215.409447 
L 221.544 216.253094 
L 221.916 217.518565 
L 222.288 217.518565 
L 222.66 217.940388 
L 223.032 215.409447 
L 223.404 217.096741 
L 223.776 220.049506 
L 224.148 217.940388 
L 224.52 201.489271 
L 224.892 231.016917 
L 225.264 219.205859 
L 225.636 215.409447 
L 226.008 214.143977 
L 226.38 209.503918 
L 226.752 207.816624 
L 227.124 207.3948 
L 227.496 203.598389 
L 228.24 184.194508 
L 228.612 161.416038 
L 228.984 147.495862 
L 229.356 147.074039 
L 230.1 238.60974 
L 230.472 273.199268 
L 230.844 291.759502 
L 231.216 296.399561 
L 231.588 293.86862 
L 231.96 284.166679 
L 232.704 247.468034 
L 233.448 204.442036 
L 234.192 169.430685 
L 235.308 132.73204 
L 235.68 115.015452 
L 236.052 104.469865 
L 236.424 101.938923 
L 236.796 107.000806 
L 237.168 119.233687 
L 237.54 137.793922 
L 238.284 194.740095 
L 239.772 321.287148 
L 240.144 335.629147 
L 240.516 337.738264 
L 240.888 331.832735 
L 241.632 306.101501 
L 242.376 268.137386 
L 243.492 203.598389 
L 243.864 204.863859 
L 244.236 239.031564 
L 244.608 259.279092 
L 244.98 273.199268 
L 245.724 251.264445 
L 246.468 221.7368 
L 246.84 212.878506 
L 247.212 214.143977 
L 247.584 218.362212 
L 247.956 218.362212 
L 248.7 213.30033 
L 249.072 211.613036 
L 249.444 214.5658 
L 250.188 216.253094 
L 250.56 216.674918 
L 251.304 216.674918 
L 251.676 214.987624 
L 252.048 215.409447 
L 252.42 214.143977 
L 252.792 213.30033 
L 253.164 213.722153 
L 253.536 213.30033 
L 253.908 213.722153 
L 254.652 215.409447 
L 255.024 214.5658 
L 255.396 215.409447 
L 255.768 215.831271 
L 256.14 215.409447 
L 257.628 215.409447 
L 258 214.987624 
L 258.372 215.409447 
L 258.744 214.987624 
L 259.116 214.987624 
L 259.488 215.831271 
L 259.86 214.143977 
L 260.232 215.409447 
L 260.604 215.831271 
L 260.976 214.5658 
L 261.72 214.5658 
L 262.092 215.409447 
L 262.464 215.409447 
L 262.836 214.987624 
L 263.208 214.987624 
L 263.58 214.5658 
L 264.324 214.5658 
L 264.696 214.143977 
L 265.068 214.143977 
L 265.812 216.674918 
L 266.184 216.253094 
L 266.556 217.096741 
L 266.928 216.253094 
L 267.3 218.362212 
L 267.672 217.518565 
L 268.044 219.205859 
L 268.416 217.940388 
L 268.788 218.784035 
L 269.16 218.784035 
L 269.532 224.689564 
L 269.904 219.205859 
L 270.276 216.253094 
L 270.648 222.580447 
L 271.02 217.096741 
L 271.392 214.143977 
L 271.764 208.238447 
L 272.136 209.503918 
L 272.508 208.238447 
L 272.88 209.503918 
L 273.252 206.972977 
L 273.624 214.5658 
L 273.996 218.362212 
L 274.368 210.769389 
L 274.74 200.223801 
L 275.112 185.881802 
L 275.484 177.445331 
L 275.856 172.805273 
L 276.228 162.259685 
L 276.6 163.103332 
L 276.972 212.034859 
L 277.716 341.956499 
L 278.088 361.782204 
L 278.46 359.251263 
L 278.832 347.018382 
L 279.576 307.366972 
L 281.064 207.816624 
L 281.808 173.227096 
L 282.924 132.73204 
L 283.668 101.095276 
L 284.04 90.549689 
L 284.412 83.800513 
L 284.784 82.956866 
L 285.156 93.08063 
L 285.528 116.280923 
L 285.9 155.510509 
L 287.016 306.945148 
L 287.388 341.112852 
L 287.76 357.985793 
L 288.132 361.360381 
L 288.504 352.080264 
L 288.876 336.894617 
L 289.248 308.210619 
L 289.992 214.143977 
L 290.364 205.707506 
L 290.736 241.562505 
L 291.108 260.544562 
L 291.48 250.420798 
L 291.852 236.078799 
L 292.224 208.660271 
L 292.596 198.536507 
L 293.34 212.878506 
L 293.712 209.503918 
L 294.456 216.674918 
L 294.828 217.096741 
L 295.2 215.831271 
L 295.572 215.831271 
L 295.944 215.409447 
L 296.316 214.5658 
L 297.06 213.722153 
L 297.432 212.456683 
L 297.804 212.456683 
L 298.176 212.878506 
L 298.548 212.034859 
L 298.92 212.878506 
L 299.292 212.456683 
L 299.664 213.722153 
L 300.408 214.5658 
L 300.78 215.831271 
L 301.152 216.253094 
L 301.896 215.409447 
L 302.268 215.409447 
L 302.64 214.987624 
L 304.128 214.987624 
L 304.5 213.722153 
L 304.872 214.5658 
L 305.244 214.987624 
L 305.616 214.987624 
L 306.36 214.143977 
L 306.732 214.987624 
L 307.104 214.5658 
L 307.476 215.409447 
L 307.848 215.831271 
L 308.592 215.831271 
L 308.964 216.253094 
L 309.336 215.831271 
L 309.708 214.987624 
L 310.452 214.143977 
L 310.824 214.987624 
L 311.196 216.253094 
L 311.568 215.409447 
L 312.312 216.253094 
L 312.684 217.518565 
L 313.056 218.362212 
L 313.428 218.362212 
L 313.8 217.518565 
L 314.544 217.518565 
L 314.916 217.940388 
L 315.288 218.784035 
L 315.66 217.940388 
L 316.032 216.674918 
L 316.776 208.660271 
L 317.148 212.456683 
L 318.264 206.972977 
L 318.636 213.30033 
L 319.008 214.987624 
L 319.752 228.064152 
L 320.496 222.580447 
L 320.868 214.987624 
L 321.24 203.176565 
L 321.612 197.69286 
L 322.356 166.47792 
L 322.728 161.416038 
L 323.1 153.401391 
L 323.472 178.288978 
L 324.216 306.523325 
L 324.588 334.363676 
L 324.96 339.425558 
L 325.332 330.567265 
L 325.704 311.163383 
L 326.82 223.845917 
L 327.564 171.961626 
L 328.308 140.324863 
L 329.052 119.655511 
L 330.168 86.331454 
L 330.54 86.331454 
L 330.912 97.720688 
L 331.284 119.655511 
L 332.028 188.412743 
L 333.144 311.585207 
L 333.516 348.705676 
L 333.888 372.327792 
L 334.26 373.593263 
L 334.632 354.611205 
L 336.12 214.987624 
L 336.492 174.070743 
L 336.864 214.143977 
L 337.236 273.621091 
L 337.608 284.166679 
L 337.98 271.933797 
L 338.724 204.020212 
L 339.096 196.005566 
L 339.468 207.816624 
L 339.84 213.722153 
L 340.212 207.816624 
L 340.584 214.143977 
L 340.956 216.253094 
L 341.328 217.096741 
L 341.7 214.987624 
L 342.072 214.987624 
L 342.444 215.409447 
L 342.816 215.409447 
L 343.188 214.987624 
L 343.56 214.143977 
L 343.932 213.722153 
L 344.304 214.143977 
L 344.676 213.722153 
L 345.048 214.143977 
L 345.42 214.143977 
L 345.792 214.987624 
L 346.164 214.143977 
L 346.908 214.987624 
L 347.28 214.987624 
L 347.652 215.409447 
L 348.768 215.409447 
L 349.14 214.987624 
L 349.512 215.409447 
L 349.884 214.987624 
L 350.256 214.987624 
L 350.628 215.409447 
L 351 214.143977 
L 351.372 214.987624 
L 351.744 214.987624 
L 352.116 214.5658 
L 352.488 214.987624 
L 352.86 213.722153 
L 353.232 214.5658 
L 353.604 214.143977 
L 353.976 214.5658 
L 354.348 215.409447 
L 354.72 216.674918 
L 355.092 215.409447 
L 355.464 215.831271 
L 355.836 214.143977 
L 356.208 214.143977 
L 356.952 214.987624 
L 357.696 214.987624 
L 358.068 215.831271 
L 358.44 216.253094 
L 358.812 217.518565 
L 359.184 217.940388 
L 359.556 219.205859 
L 359.928 218.784035 
L 360.3 219.205859 
L 360.672 217.940388 
L 361.416 217.096741 
L 361.788 217.518565 
L 362.532 209.925741 
L 362.904 203.176565 
L 363.276 209.082094 
L 363.648 201.911095 
L 364.02 200.223801 
L 364.392 206.12933 
L 364.764 208.660271 
L 365.136 207.816624 
L 365.508 204.863859 
L 365.88 196.005566 
L 367.368 172.383449 
L 367.74 156.354156 
L 368.112 147.917686 
L 368.484 145.808568 
L 368.856 149.183156 
L 369.972 322.552618 
L 370.344 340.691029 
L 370.716 339.847382 
L 371.088 330.145441 
L 371.46 312.428854 
L 373.692 175.758037 
L 375.18 114.593629 
L 375.924 93.08063 
L 376.296 94.3461 
L 376.668 102.360747 
L 377.04 117.12457 
L 377.412 139.481216 
L 378.156 206.551153 
L 379.272 322.974442 
L 379.644 346.596558 
L 380.016 359.673087 
L 380.388 360.516734 
L 380.76 347.018382 
L 381.132 320.021677 
L 381.504 279.104797 
L 382.248 144.964921 
L 382.62 140.746686 
L 383.364 175.336214 
L 383.736 185.038155 
L 384.108 203.598389 
L 384.48 213.30033 
L 384.852 214.5658 
L 385.224 219.205859 
L 385.596 221.314976 
L 385.968 218.784035 
L 386.34 214.5658 
L 386.712 207.816624 
L 387.084 206.972977 
L 387.456 213.30033 
L 388.2 214.987624 
L 388.572 214.987624 
L 388.944 216.253094 
L 389.316 214.5658 
L 389.688 214.987624 
L 390.804 214.987624 
L 391.176 214.5658 
L 391.548 213.722153 
L 392.292 214.5658 
L 392.664 214.5658 
L 393.036 214.143977 
L 393.408 214.143977 
L 394.152 215.831271 
L 394.896 215.831271 
L 395.64 214.987624 
L 396.012 214.987624 
L 396.384 215.831271 
L 397.5 214.5658 
L 397.872 215.409447 
L 398.616 215.409447 
L 399.36 214.5658 
L 400.104 215.409447 
L 400.476 214.5658 
L 400.848 214.987624 
L 401.592 214.143977 
L 401.964 214.5658 
L 402.336 214.143977 
L 402.708 214.987624 
L 403.452 214.987624 
L 403.824 215.409447 
L 404.196 215.409447 
L 404.568 214.5658 
L 404.94 214.143977 
L 405.312 214.143977 
L 406.428 215.409447 
L 406.8 214.987624 
L 407.172 215.409447 
L 407.544 215.409447 
L 408.288 218.362212 
L 408.66 219.627682 
L 409.032 220.049506 
L 409.404 220.049506 
L 410.148 213.722153 
L 410.892 183.35086 
L 411.264 204.020212 
L 411.636 203.598389 
L 412.008 211.613036 
L 412.38 210.347565 
L 413.124 201.067448 
L 413.868 181.241743 
L 414.24 174.070743 
L 415.728 137.372098 
L 416.472 206.551153 
L 416.844 251.686269 
L 417.216 273.621091 
L 417.588 281.635738 
L 417.96 282.057561 
L 418.332 274.886562 
L 419.076 246.202563 
L 419.82 213.722153 
L 420.564 190.52186 
L 420.936 183.35086 
L 421.308 179.132625 
L 421.68 177.867155 
L 422.424 167.743391 
L 422.796 164.368803 
L 423.168 162.681509 
L 423.54 164.790626 
L 423.912 165.634273 
L 424.284 169.008861 
L 424.656 175.758037 
L 425.028 190.52186 
L 425.4 211.191212 
L 427.26 350.39297 
L 427.632 361.360381 
L 428.004 359.251263 
L 428.376 343.643793 
L 429.12 288.384914 
L 429.492 247.468034 
L 429.864 191.787331 
L 430.236 162.681509 
L 430.608 171.539802 
L 430.98 192.209154 
L 431.724 215.831271 
L 432.096 223.845917 
L 432.468 225.111388 
L 432.84 220.049506 
L 433.212 220.893153 
L 433.584 221.314976 
L 433.956 217.096741 
L 434.328 211.191212 
L 434.7 209.925741 
L 435.072 213.722153 
L 435.444 215.409447 
L 435.816 213.722153 
L 436.188 214.987624 
L 436.932 214.143977 
L 438.048 214.143977 
L 438.42 214.5658 
L 438.792 213.722153 
L 439.164 213.722153 
L 439.536 214.143977 
L 439.908 214.987624 
L 440.28 215.409447 
L 440.652 214.987624 
L 441.024 214.987624 
L 441.396 215.409447 
L 442.14 215.409447 
L 442.512 214.987624 
L 442.884 215.409447 
L 443.256 214.143977 
L 443.628 215.409447 
L 444 214.143977 
L 444.372 214.5658 
L 444.744 214.5658 
L 445.488 215.409447 
L 445.86 215.409447 
L 446.232 214.987624 
L 446.604 215.409447 
L 446.976 214.987624 
L 447.348 215.409447 
L 448.092 214.5658 
L 448.836 215.409447 
L 449.208 214.5658 
L 449.58 215.409447 
L 450.324 214.5658 
L 450.696 214.987624 
L 451.068 214.143977 
L 451.44 214.987624 
L 451.812 215.409447 
L 452.184 214.5658 
L 452.928 214.5658 
L 453.672 216.253094 
L 454.416 216.253094 
L 454.788 216.674918 
L 455.16 214.987624 
L 455.532 215.409447 
L 456.276 215.409447 
L 456.648 216.253094 
L 457.02 216.674918 
L 457.392 217.940388 
L 457.764 217.940388 
L 458.136 218.784035 
L 458.508 221.314976 
L 458.88 221.7368 
L 459.252 219.627682 
L 459.624 209.503918 
L 459.996 213.722153 
L 460.368 209.925741 
L 460.74 207.3948 
L 461.112 200.645624 
L 461.484 202.332918 
L 461.856 206.551153 
L 462.228 217.518565 
L 462.6 215.831271 
L 462.972 206.12933 
L 463.344 201.067448 
L 463.716 190.100037 
L 464.088 185.038155 
L 464.46 166.056097 
L 464.832 154.666862 
L 465.204 156.775979 
L 465.576 160.994215 
L 466.692 340.269205 
L 467.064 365.578616 
L 467.436 371.062321 
L 467.808 363.047675 
L 468.18 348.283852 
L 468.924 300.617796 
L 470.04 226.798682 
L 470.784 191.787331 
L 471.528 171.117979 
L 471.9 163.103332 
L 472.644 137.372098 
L 473.388 109.531747 
L 473.76 102.78257 
L 474.132 104.891688 
L 474.504 115.859099 
L 474.876 132.73204 
L 475.62 186.725449 
L 477.108 320.865324 
L 477.108 320.865324 
" style="fill:none;stroke:#8b0000;stroke-linecap:square;"/>
   </g>
   <g id="patch_3">
    <path d="M 72 388.8 
L 72 43.2 
" style="fill:none;stroke:#000000;stroke-linecap:square;stroke-linejoin:miter;"/>
   </g>
   <g id="patch_4">
    <path d="M 72 43.2 
L 518.4 43.2 
" style="fill:none;stroke:#000000;stroke-linecap:square;stroke-linejoin:miter;"/>
   </g>
   <g id="patch_5">
    <path d="M 72 388.8 
L 518.4 388.8 
" style="fill:none;stroke:#000000;stroke-linecap:square;stroke-linejoin:miter;"/>
   </g>
   <g id="patch_6">
    <path d="M 518.4 388.8 
L 518.4 43.2 
" style="fill:none;stroke:#000000;stroke-linecap:square;stroke-linejoin:miter;"/>
   </g>
   <g id="matplotlib.axis_1">
    <g id="xtick_1">
     <g id="line2d_2">
      <defs>
       <path d="M 0 0 
L 0 -4 
" id="m8b4642ca9c" style="stroke:#000000;stroke-width:0.5;"/>
      </defs>
      <g>
       <use style="stroke:#000000;stroke-width:0.5;" x="72.0" xlink:href="#m8b4642ca9c" y="388.8"/>
      </g>
     </g>
     <g id="line2d_3">
      <defs>
       <path d="M 0 0 
L 0 4 
" id="m5db6e5f01c" style="stroke:#000000;stroke-width:0.5;"/>
      </defs>
      <g>
       <use style="stroke:#000000;stroke-width:0.5;" x="72.0" xlink:href="#m5db6e5f01c" y="43.2"/>
      </g>
     </g>
     <g id="text_1">
      <!-- 0 -->
      <defs>
       <path d="M 31.78125 66.40625 
Q 24.171875 66.40625 20.328125 58.90625 
Q 16.5 51.421875 16.5 36.375 
Q 16.5 21.390625 20.328125 13.890625 
Q 24.171875 6.390625 31.78125 6.390625 
Q 39.453125 6.390625 43.28125 13.890625 
Q 47.125 21.390625 47.125 36.375 
Q 47.125 51.421875 43.28125 58.90625 
Q 39.453125 66.40625 31.78125 66.40625 
M 31.78125 74.21875 
Q 44.046875 74.21875 50.515625 64.515625 
Q 56.984375 54.828125 56.984375 36.375 
Q 56.984375 17.96875 50.515625 8.265625 
Q 44.046875 -1.421875 31.78125 -1.421875 
Q 19.53125 -1.421875 13.0625 8.265625 
Q 6.59375 17.96875 6.59375 36.375 
Q 6.59375 54.828125 13.0625 64.515625 
Q 19.53125 74.21875 31.78125 74.21875 
" id="BitstreamVeraSans-Roman-30"/>
      </defs>
      <g transform="translate(68.1825 401.918125)scale(0.12 -0.12)">
       <use xlink:href="#BitstreamVeraSans-Roman-30"/>
      </g>
     </g>
    </g>
    <g id="xtick_2">
     <g id="line2d_4">
      <g>
       <use style="stroke:#000000;stroke-width:0.5;" x="146.4" xlink:href="#m8b4642ca9c" y="388.8"/>
      </g>
     </g>
     <g id="line2d_5">
      <g>
       <use style="stroke:#000000;stroke-width:0.5;" x="146.4" xlink:href="#m5db6e5f01c" y="43.2"/>
      </g>
     </g>
     <g id="text_2">
      <!-- 200 -->
      <defs>
       <path d="M 19.1875 8.296875 
L 53.609375 8.296875 
L 53.609375 0 
L 7.328125 0 
L 7.328125 8.296875 
Q 12.9375 14.109375 22.625 23.890625 
Q 32.328125 33.6875 34.8125 36.53125 
Q 39.546875 41.84375 41.421875 45.53125 
Q 43.3125 49.21875 43.3125 52.78125 
Q 43.3125 58.59375 39.234375 62.25 
Q 35.15625 65.921875 28.609375 65.921875 
Q 23.96875 65.921875 18.8125 64.3125 
Q 13.671875 62.703125 7.8125 59.421875 
L 7.8125 69.390625 
Q 13.765625 71.78125 18.9375 73 
Q 24.125 74.21875 28.421875 74.21875 
Q 39.75 74.21875 46.484375 68.546875 
Q 53.21875 62.890625 53.21875 53.421875 
Q 53.21875 48.921875 51.53125 44.890625 
Q 49.859375 40.875 45.40625 35.40625 
Q 44.1875 33.984375 37.640625 27.21875 
Q 31.109375 20.453125 19.1875 8.296875 
" id="BitstreamVeraSans-Roman-32"/>
      </defs>
      <g transform="translate(134.9475 401.918125)scale(0.12 -0.12)">
       <use xlink:href="#BitstreamVeraSans-Roman-32"/>
       <use x="63.623046875" xlink:href="#BitstreamVeraSans-Roman-30"/>
       <use x="127.24609375" xlink:href="#BitstreamVeraSans-Roman-30"/>
      </g>
     </g>
    </g>
    <g id="xtick_3">
     <g id="line2d_6">
      <g>
       <use style="stroke:#000000;stroke-width:0.5;" x="220.8" xlink:href="#m8b4642ca9c" y="388.8"/>
      </g>
     </g>
     <g id="line2d_7">
      <g>
       <use style="stroke:#000000;stroke-width:0.5;" x="220.8" xlink:href="#m5db6e5f01c" y="43.2"/>
      </g>
     </g>
     <g id="text_3">
      <!-- 400 -->
      <defs>
       <path d="M 37.796875 64.3125 
L 12.890625 25.390625 
L 37.796875 25.390625 
z
M 35.203125 72.90625 
L 47.609375 72.90625 
L 47.609375 25.390625 
L 58.015625 25.390625 
L 58.015625 17.1875 
L 47.609375 17.1875 
L 47.609375 0 
L 37.796875 0 
L 37.796875 17.1875 
L 4.890625 17.1875 
L 4.890625 26.703125 
z
" id="BitstreamVeraSans-Roman-34"/>
      </defs>
      <g transform="translate(209.3475 401.918125)scale(0.12 -0.12)">
       <use xlink:href="#BitstreamVeraSans-Roman-34"/>
       <use x="63.623046875" xlink:href="#BitstreamVeraSans-Roman-30"/>
       <use x="127.24609375" xlink:href="#BitstreamVeraSans-Roman-30"/>
      </g>
     </g>
    </g>
    <g id="xtick_4">
     <g id="line2d_8">
      <g>
       <use style="stroke:#000000;stroke-width:0.5;" x="295.2" xlink:href="#m8b4642ca9c" y="388.8"/>
      </g>
     </g>
     <g id="line2d_9">
      <g>
       <use style="stroke:#000000;stroke-width:0.5;" x="295.2" xlink:href="#m5db6e5f01c" y="43.2"/>
      </g>
     </g>
     <g id="text_4">
      <!-- 600 -->
      <defs>
       <path d="M 33.015625 40.375 
Q 26.375 40.375 22.484375 35.828125 
Q 18.609375 31.296875 18.609375 23.390625 
Q 18.609375 15.53125 22.484375 10.953125 
Q 26.375 6.390625 33.015625 6.390625 
Q 39.65625 6.390625 43.53125 10.953125 
Q 47.40625 15.53125 47.40625 23.390625 
Q 47.40625 31.296875 43.53125 35.828125 
Q 39.65625 40.375 33.015625 40.375 
M 52.59375 71.296875 
L 52.59375 62.3125 
Q 48.875 64.0625 45.09375 64.984375 
Q 41.3125 65.921875 37.59375 65.921875 
Q 27.828125 65.921875 22.671875 59.328125 
Q 17.53125 52.734375 16.796875 39.40625 
Q 19.671875 43.65625 24.015625 45.921875 
Q 28.375 48.1875 33.59375 48.1875 
Q 44.578125 48.1875 50.953125 41.515625 
Q 57.328125 34.859375 57.328125 23.390625 
Q 57.328125 12.15625 50.6875 5.359375 
Q 44.046875 -1.421875 33.015625 -1.421875 
Q 20.359375 -1.421875 13.671875 8.265625 
Q 6.984375 17.96875 6.984375 36.375 
Q 6.984375 53.65625 15.1875 63.9375 
Q 23.390625 74.21875 37.203125 74.21875 
Q 40.921875 74.21875 44.703125 73.484375 
Q 48.484375 72.75 52.59375 71.296875 
" id="BitstreamVeraSans-Roman-36"/>
      </defs>
      <g transform="translate(283.7475 401.918125)scale(0.12 -0.12)">
       <use xlink:href="#BitstreamVeraSans-Roman-36"/>
       <use x="63.623046875" xlink:href="#BitstreamVeraSans-Roman-30"/>
       <use x="127.24609375" xlink:href="#BitstreamVeraSans-Roman-30"/>
      </g>
     </g>
    </g>
    <g id="xtick_5">
     <g id="line2d_10">
      <g>
       <use style="stroke:#000000;stroke-width:0.5;" x="369.6" xlink:href="#m8b4642ca9c" y="388.8"/>
      </g>
     </g>
     <g id="line2d_11">
      <g>
       <use style="stroke:#000000;stroke-width:0.5;" x="369.6" xlink:href="#m5db6e5f01c" y="43.2"/>
      </g>
     </g>
     <g id="text_5">
      <!-- 800 -->
      <defs>
       <path d="M 31.78125 34.625 
Q 24.75 34.625 20.71875 30.859375 
Q 16.703125 27.09375 16.703125 20.515625 
Q 16.703125 13.921875 20.71875 10.15625 
Q 24.75 6.390625 31.78125 6.390625 
Q 38.8125 6.390625 42.859375 10.171875 
Q 46.921875 13.96875 46.921875 20.515625 
Q 46.921875 27.09375 42.890625 30.859375 
Q 38.875 34.625 31.78125 34.625 
M 21.921875 38.8125 
Q 15.578125 40.375 12.03125 44.71875 
Q 8.5 49.078125 8.5 55.328125 
Q 8.5 64.0625 14.71875 69.140625 
Q 20.953125 74.21875 31.78125 74.21875 
Q 42.671875 74.21875 48.875 69.140625 
Q 55.078125 64.0625 55.078125 55.328125 
Q 55.078125 49.078125 51.53125 44.71875 
Q 48 40.375 41.703125 38.8125 
Q 48.828125 37.15625 52.796875 32.3125 
Q 56.78125 27.484375 56.78125 20.515625 
Q 56.78125 9.90625 50.3125 4.234375 
Q 43.84375 -1.421875 31.78125 -1.421875 
Q 19.734375 -1.421875 13.25 4.234375 
Q 6.78125 9.90625 6.78125 20.515625 
Q 6.78125 27.484375 10.78125 32.3125 
Q 14.796875 37.15625 21.921875 38.8125 
M 18.3125 54.390625 
Q 18.3125 48.734375 21.84375 45.5625 
Q 25.390625 42.390625 31.78125 42.390625 
Q 38.140625 42.390625 41.71875 45.5625 
Q 45.3125 48.734375 45.3125 54.390625 
Q 45.3125 60.0625 41.71875 63.234375 
Q 38.140625 66.40625 31.78125 66.40625 
Q 25.390625 66.40625 21.84375 63.234375 
Q 18.3125 60.0625 18.3125 54.390625 
" id="BitstreamVeraSans-Roman-38"/>
      </defs>
      <g transform="translate(358.1475 401.918125)scale(0.12 -0.12)">
       <use xlink:href="#BitstreamVeraSans-Roman-38"/>
       <use x="63.623046875" xlink:href="#BitstreamVeraSans-Roman-30"/>
       <use x="127.24609375" xlink:href="#BitstreamVeraSans-Roman-30"/>
      </g>
     </g>
    </g>
    <g id="xtick_6">
     <g id="line2d_12">
      <g>
       <use style="stroke:#000000;stroke-width:0.5;" x="444.0" xlink:href="#m8b4642ca9c" y="388.8"/>
      </g>
     </g>
     <g id="line2d_13">
      <g>
       <use style="stroke:#000000;stroke-width:0.5;" x="444.0" xlink:href="#m5db6e5f01c" y="43.2"/>
      </g>
     </g>
     <g id="text_6">
      <!-- 1000 -->
      <defs>
       <path d="M 12.40625 8.296875 
L 28.515625 8.296875 
L 28.515625 63.921875 
L 10.984375 60.40625 
L 10.984375 69.390625 
L 28.421875 72.90625 
L 38.28125 72.90625 
L 38.28125 8.296875 
L 54.390625 8.296875 
L 54.390625 0 
L 12.40625 0 
z
" id="BitstreamVeraSans-Roman-31"/>
      </defs>
      <g transform="translate(428.73 401.918125)scale(0.12 -0.12)">
       <use xlink:href="#BitstreamVeraSans-Roman-31"/>
       <use x="63.623046875" xlink:href="#BitstreamVeraSans-Roman-30"/>
       <use x="127.24609375" xlink:href="#BitstreamVeraSans-Roman-30"/>
       <use x="190.869140625" xlink:href="#BitstreamVeraSans-Roman-30"/>
      </g>
     </g>
    </g>
    <g id="xtick_7">
     <g id="line2d_14">
      <g>
       <use style="stroke:#000000;stroke-width:0.5;" x="518.4" xlink:href="#m8b4642ca9c" y="388.8"/>
      </g>
     </g>
     <g id="line2d_15">
      <g>
       <use style="stroke:#000000;stroke-width:0.5;" x="518.4" xlink:href="#m5db6e5f01c" y="43.2"/>
      </g>
     </g>
     <g id="text_7">
      <!-- 1200 -->
      <g transform="translate(503.13 401.918125)scale(0.12 -0.12)">
       <use xlink:href="#BitstreamVeraSans-Roman-31"/>
       <use x="63.623046875" xlink:href="#BitstreamVeraSans-Roman-32"/>
       <use x="127.24609375" xlink:href="#BitstreamVeraSans-Roman-30"/>
       <use x="190.869140625" xlink:href="#BitstreamVeraSans-Roman-30"/>
      </g>
     </g>
    </g>
   </g>
   <g id="matplotlib.axis_2">
    <g id="ytick_1">
     <g id="line2d_16">
      <defs>
       <path d="M 0 0 
L 4 0 
" id="m1c47876297" style="stroke:#000000;stroke-width:0.5;"/>
      </defs>
      <g>
       <use style="stroke:#000000;stroke-width:0.5;" x="72.0" xlink:href="#m1c47876297" y="388.8"/>
      </g>
     </g>
     <g id="line2d_17">
      <defs>
       <path d="M 0 0 
L -4 0 
" id="m3abdefe8d5" style="stroke:#000000;stroke-width:0.5;"/>
      </defs>
      <g>
       <use style="stroke:#000000;stroke-width:0.5;" x="518.4" xlink:href="#m3abdefe8d5" y="388.8"/>
      </g>
     </g>
     <g id="text_8">
      <!-- −150 -->
      <defs>
       <path d="M 10.59375 35.5 
L 73.1875 35.5 
L 73.1875 27.203125 
L 10.59375 27.203125 
z
" id="BitstreamVeraSans-Roman-2212"/>
       <path d="M 10.796875 72.90625 
L 49.515625 72.90625 
L 49.515625 64.59375 
L 19.828125 64.59375 
L 19.828125 46.734375 
Q 21.96875 47.46875 24.109375 47.828125 
Q 26.265625 48.1875 28.421875 48.1875 
Q 40.625 48.1875 47.75 41.5 
Q 54.890625 34.8125 54.890625 23.390625 
Q 54.890625 11.625 47.5625 5.09375 
Q 40.234375 -1.421875 26.90625 -1.421875 
Q 22.3125 -1.421875 17.546875 -0.640625 
Q 12.796875 0.140625 7.71875 1.703125 
L 7.71875 11.625 
Q 12.109375 9.234375 16.796875 8.0625 
Q 21.484375 6.890625 26.703125 6.890625 
Q 35.15625 6.890625 40.078125 11.328125 
Q 45.015625 15.765625 45.015625 23.390625 
Q 45.015625 31 40.078125 35.4375 
Q 35.15625 39.890625 26.703125 39.890625 
Q 22.75 39.890625 18.8125 39.015625 
Q 14.890625 38.140625 10.796875 36.28125 
z
" id="BitstreamVeraSans-Roman-35"/>
      </defs>
      <g transform="translate(35.039375 392.11125)scale(0.12 -0.12)">
       <use xlink:href="#BitstreamVeraSans-Roman-2212"/>
       <use x="83.7890625" xlink:href="#BitstreamVeraSans-Roman-31"/>
       <use x="147.412109375" xlink:href="#BitstreamVeraSans-Roman-35"/>
       <use x="211.03515625" xlink:href="#BitstreamVeraSans-Roman-30"/>
      </g>
     </g>
    </g>
    <g id="ytick_2">
     <g id="line2d_18">
      <g>
       <use style="stroke:#000000;stroke-width:0.5;" x="72.0" xlink:href="#m1c47876297" y="331.2"/>
      </g>
     </g>
     <g id="line2d_19">
      <g>
       <use style="stroke:#000000;stroke-width:0.5;" x="518.4" xlink:href="#m3abdefe8d5" y="331.2"/>
      </g>
     </g>
     <g id="text_9">
      <!-- −100 -->
      <g transform="translate(35.039375 334.51125)scale(0.12 -0.12)">
       <use xlink:href="#BitstreamVeraSans-Roman-2212"/>
       <use x="83.7890625" xlink:href="#BitstreamVeraSans-Roman-31"/>
       <use x="147.412109375" xlink:href="#BitstreamVeraSans-Roman-30"/>
       <use x="211.03515625" xlink:href="#BitstreamVeraSans-Roman-30"/>
      </g>
     </g>
    </g>
    <g id="ytick_3">
     <g id="line2d_20">
      <g>
       <use style="stroke:#000000;stroke-width:0.5;" x="72.0" xlink:href="#m1c47876297" y="273.6"/>
      </g>
     </g>
     <g id="line2d_21">
      <g>
       <use style="stroke:#000000;stroke-width:0.5;" x="518.4" xlink:href="#m3abdefe8d5" y="273.6"/>
      </g>
     </g>
     <g id="text_10">
      <!-- −50 -->
      <g transform="translate(42.674375 276.91125)scale(0.12 -0.12)">
       <use xlink:href="#BitstreamVeraSans-Roman-2212"/>
       <use x="83.7890625" xlink:href="#BitstreamVeraSans-Roman-35"/>
       <use x="147.412109375" xlink:href="#BitstreamVeraSans-Roman-30"/>
      </g>
     </g>
    </g>
    <g id="ytick_4">
     <g id="line2d_22">
      <g>
       <use style="stroke:#000000;stroke-width:0.5;" x="72.0" xlink:href="#m1c47876297" y="216.0"/>
      </g>
     </g>
     <g id="line2d_23">
      <g>
       <use style="stroke:#000000;stroke-width:0.5;" x="518.4" xlink:href="#m3abdefe8d5" y="216.0"/>
      </g>
     </g>
     <g id="text_11">
      <!-- 0 -->
      <g transform="translate(60.365 219.31125)scale(0.12 -0.12)">
       <use xlink:href="#BitstreamVeraSans-Roman-30"/>
      </g>
     </g>
    </g>
    <g id="ytick_5">
     <g id="line2d_24">
      <g>
       <use style="stroke:#000000;stroke-width:0.5;" x="72.0" xlink:href="#m1c47876297" y="158.4"/>
      </g>
     </g>
     <g id="line2d_25">
      <g>
       <use style="stroke:#000000;stroke-width:0.5;" x="518.4" xlink:href="#m3abdefe8d5" y="158.4"/>
      </g>
     </g>
     <g id="text_12">
      <!-- 50 -->
      <g transform="translate(52.73 161.71125)scale(0.12 -0.12)">
       <use xlink:href="#BitstreamVeraSans-Roman-35"/>
       <use x="63.623046875" xlink:href="#BitstreamVeraSans-Roman-30"/>
      </g>
     </g>
    </g>
    <g id="ytick_6">
     <g id="line2d_26">
      <g>
       <use style="stroke:#000000;stroke-width:0.5;" x="72.0" xlink:href="#m1c47876297" y="100.8"/>
      </g>
     </g>
     <g id="line2d_27">
      <g>
       <use style="stroke:#000000;stroke-width:0.5;" x="518.4" xlink:href="#m3abdefe8d5" y="100.8"/>
      </g>
     </g>
     <g id="text_13">
      <!-- 100 -->
      <g transform="translate(45.095 104.11125)scale(0.12 -0.12)">
       <use xlink:href="#BitstreamVeraSans-Roman-31"/>
       <use x="63.623046875" xlink:href="#BitstreamVeraSans-Roman-30"/>
       <use x="127.24609375" xlink:href="#BitstreamVeraSans-Roman-30"/>
      </g>
     </g>
    </g>
    <g id="ytick_7">
     <g id="line2d_28">
      <g>
       <use style="stroke:#000000;stroke-width:0.5;" x="72.0" xlink:href="#m1c47876297" y="43.2"/>
      </g>
     </g>
     <g id="line2d_29">
      <g>
       <use style="stroke:#000000;stroke-width:0.5;" x="518.4" xlink:href="#m3abdefe8d5" y="43.2"/>
      </g>
     </g>
     <g id="text_14">
      <!-- 150 -->
      <g transform="translate(45.095 46.51125)scale(0.12 -0.12)">
       <use xlink:href="#BitstreamVeraSans-Roman-31"/>
       <use x="63.623046875" xlink:href="#BitstreamVeraSans-Roman-35"/>
       <use x="127.24609375" xlink:href="#BitstreamVeraSans-Roman-30"/>
      </g>
     </g>
    </g>
   </g>
   <g id="patch_7">
    <path d="M 126.167855 176.08706 
Q 107.15258 176.08706 88.137305 176.08706 
" style="fill:none;opacity:0.5;stroke:#000000;stroke-linecap:round;"/>
    <path d="M 121.367855 173.68706 
L 126.167855 176.08706 
L 121.367855 178.48706 
L 121.367855 173.68706 
z
" style="fill:#ffffff;opacity:0.5;stroke:#000000;stroke-linecap:round;"/>
    <path d="M 92.937305 178.48706 
L 88.137305 176.08706 
L 92.937305 173.68706 
L 92.937305 178.48706 
z
" style="fill:#ffffff;opacity:0.5;stroke:#000000;stroke-linecap:round;"/>
   </g>
   <g id="patch_8">
    <path d="M 175.643855 176.08706 
Q 154.026057 176.08706 132.408259 176.08706 
" style="fill:none;opacity:0.5;stroke:#000000;stroke-linecap:round;"/>
    <path d="M 170.843855 173.68706 
L 175.643855 176.08706 
L 170.843855 178.48706 
L 170.843855 173.68706 
z
" style="fill:#ffffff;opacity:0.5;stroke:#000000;stroke-linecap:round;"/>
    <path d="M 137.208259 178.48706 
L 132.408259 176.08706 
L 137.208259 173.68706 
L 137.208259 178.48706 
z
" style="fill:#ffffff;opacity:0.5;stroke:#000000;stroke-linecap:round;"/>
   </g>
   <g id="patch_9">
    <path d="M 224.007692 176.08706 
Q 202.94516 176.08706 181.882628 176.08706 
" style="fill:none;opacity:0.5;stroke:#000000;stroke-linecap:round;"/>
    <path d="M 219.207692 173.68706 
L 224.007692 176.08706 
L 219.207692 178.48706 
L 219.207692 173.68706 
z
" style="fill:#ffffff;opacity:0.5;stroke:#000000;stroke-linecap:round;"/>
    <path d="M 186.682628 178.48706 
L 181.882628 176.08706 
L 186.682628 173.68706 
L 186.682628 178.48706 
z
" style="fill:#ffffff;opacity:0.5;stroke:#000000;stroke-linecap:round;"/>
   </g>
   <g id="patch_10">
    <path d="M 271.99156 176.08706 
Q 251.303657 176.08706 230.615754 176.08706 
" style="fill:none;opacity:0.5;stroke:#000000;stroke-linecap:round;"/>
    <path d="M 267.19156 173.68706 
L 271.99156 176.08706 
L 267.19156 178.48706 
L 267.19156 173.68706 
z
" style="fill:#ffffff;opacity:0.5;stroke:#000000;stroke-linecap:round;"/>
    <path d="M 235.415754 178.48706 
L 230.615754 176.08706 
L 235.415754 173.68706 
L 235.415754 178.48706 
z
" style="fill:#ffffff;opacity:0.5;stroke:#000000;stroke-linecap:round;"/>
   </g>
   <g id="patch_11">
    <path d="M 318.866239 176.08706 
Q 298.549163 176.08706 278.232087 176.08706 
" style="fill:none;opacity:0.5;stroke:#000000;stroke-linecap:round;"/>
    <path d="M 314.066239 173.68706 
L 318.866239 176.08706 
L 314.066239 178.48706 
L 314.066239 173.68706 
z
" style="fill:#ffffff;opacity:0.5;stroke:#000000;stroke-linecap:round;"/>
    <path d="M 283.032087 178.48706 
L 278.232087 176.08706 
L 283.032087 173.68706 
L 283.032087 178.48706 
z
" style="fill:#ffffff;opacity:0.5;stroke:#000000;stroke-linecap:round;"/>
   </g>
   <g id="patch_12">
    <path d="M 364.247242 176.08706 
Q 344.674176 176.08706 325.10111 176.08706 
" style="fill:none;opacity:0.5;stroke:#000000;stroke-linecap:round;"/>
    <path d="M 359.447242 173.68706 
L 364.247242 176.08706 
L 359.447242 178.48706 
L 359.447242 173.68706 
z
" style="fill:#ffffff;opacity:0.5;stroke:#000000;stroke-linecap:round;"/>
    <path d="M 329.90111 178.48706 
L 325.10111 176.08706 
L 329.90111 173.68706 
L 329.90111 178.48706 
z
" style="fill:#ffffff;opacity:0.5;stroke:#000000;stroke-linecap:round;"/>
   </g>
   <g id="patch_13">
    <path d="M 411.122239 176.08706 
Q 390.805163 176.08706 370.488087 176.08706 
" style="fill:none;opacity:0.5;stroke:#000000;stroke-linecap:round;"/>
    <path d="M 406.322239 173.68706 
L 411.122239 176.08706 
L 406.322239 178.48706 
L 406.322239 173.68706 
z
" style="fill:#ffffff;opacity:0.5;stroke:#000000;stroke-linecap:round;"/>
    <path d="M 375.288087 178.48706 
L 370.488087 176.08706 
L 375.288087 173.68706 
L 375.288087 178.48706 
z
" style="fill:#ffffff;opacity:0.5;stroke:#000000;stroke-linecap:round;"/>
   </g>
   <g id="patch_14">
    <path d="M 460.967855 176.08706 
Q 439.350057 176.08706 417.732259 176.08706 
" style="fill:none;opacity:0.5;stroke:#000000;stroke-linecap:round;"/>
    <path d="M 456.167855 173.68706 
L 460.967855 176.08706 
L 456.167855 178.48706 
L 456.167855 173.68706 
z
" style="fill:#ffffff;opacity:0.5;stroke:#000000;stroke-linecap:round;"/>
    <path d="M 422.532259 178.48706 
L 417.732259 176.08706 
L 422.532259 173.68706 
L 422.532259 178.48706 
z
" style="fill:#ffffff;opacity:0.5;stroke:#000000;stroke-linecap:round;"/>
   </g>
   <g id="text_15">
    <!-- Gyroscope of tmp/exp/session2_E4/rightSensorNormalized.csv -->
    <defs>
     <path d="M 25.390625 72.90625 
L 33.6875 72.90625 
L 8.296875 -9.28125 
L 0 -9.28125 
z
" id="BitstreamVeraSans-Roman-2f"/>
     <path d="M 41.109375 46.296875 
Q 39.59375 47.171875 37.8125 47.578125 
Q 36.03125 48 33.890625 48 
Q 26.265625 48 22.1875 43.046875 
Q 18.109375 38.09375 18.109375 28.8125 
L 18.109375 0 
L 9.078125 0 
L 9.078125 54.6875 
L 18.109375 54.6875 
L 18.109375 46.1875 
Q 20.953125 51.171875 25.484375 53.578125 
Q 30.03125 56 36.53125 56 
Q 37.453125 56 38.578125 55.875 
Q 39.703125 55.765625 41.0625 55.515625 
z
" id="BitstreamVeraSans-Roman-72"/>
     <path d="M 48.78125 52.59375 
L 48.78125 44.1875 
Q 44.96875 46.296875 41.140625 47.34375 
Q 37.3125 48.390625 33.40625 48.390625 
Q 24.65625 48.390625 19.8125 42.84375 
Q 14.984375 37.3125 14.984375 27.296875 
Q 14.984375 17.28125 19.8125 11.734375 
Q 24.65625 6.203125 33.40625 6.203125 
Q 37.3125 6.203125 41.140625 7.25 
Q 44.96875 8.296875 48.78125 10.40625 
L 48.78125 2.09375 
Q 45.015625 0.34375 40.984375 -0.53125 
Q 36.96875 -1.421875 32.421875 -1.421875 
Q 20.0625 -1.421875 12.78125 6.34375 
Q 5.515625 14.109375 5.515625 27.296875 
Q 5.515625 40.671875 12.859375 48.328125 
Q 20.21875 56 33.015625 56 
Q 37.15625 56 41.109375 55.140625 
Q 45.0625 54.296875 48.78125 52.59375 
" id="BitstreamVeraSans-Roman-63"/>
     <path d="M 44.28125 53.078125 
L 44.28125 44.578125 
Q 40.484375 46.53125 36.375 47.5 
Q 32.28125 48.484375 27.875 48.484375 
Q 21.1875 48.484375 17.84375 46.4375 
Q 14.5 44.390625 14.5 40.28125 
Q 14.5 37.15625 16.890625 35.375 
Q 19.28125 33.59375 26.515625 31.984375 
L 29.59375 31.296875 
Q 39.15625 29.25 43.1875 25.515625 
Q 47.21875 21.78125 47.21875 15.09375 
Q 47.21875 7.46875 41.1875 3.015625 
Q 35.15625 -1.421875 24.609375 -1.421875 
Q 20.21875 -1.421875 15.453125 -0.5625 
Q 10.6875 0.296875 5.421875 2 
L 5.421875 11.28125 
Q 10.40625 8.6875 15.234375 7.390625 
Q 20.0625 6.109375 24.8125 6.109375 
Q 31.15625 6.109375 34.5625 8.28125 
Q 37.984375 10.453125 37.984375 14.40625 
Q 37.984375 18.0625 35.515625 20.015625 
Q 33.0625 21.96875 24.703125 23.78125 
L 21.578125 24.515625 
Q 13.234375 26.265625 9.515625 29.90625 
Q 5.8125 33.546875 5.8125 39.890625 
Q 5.8125 47.609375 11.28125 51.796875 
Q 16.75 56 26.8125 56 
Q 31.78125 56 36.171875 55.265625 
Q 40.578125 54.546875 44.28125 53.078125 
" id="BitstreamVeraSans-Roman-73"/>
     <path d="M 45.40625 27.984375 
Q 45.40625 37.75 41.375 43.109375 
Q 37.359375 48.484375 30.078125 48.484375 
Q 22.859375 48.484375 18.828125 43.109375 
Q 14.796875 37.75 14.796875 27.984375 
Q 14.796875 18.265625 18.828125 12.890625 
Q 22.859375 7.515625 30.078125 7.515625 
Q 37.359375 7.515625 41.375 12.890625 
Q 45.40625 18.265625 45.40625 27.984375 
M 54.390625 6.78125 
Q 54.390625 -7.171875 48.1875 -13.984375 
Q 42 -20.796875 29.203125 -20.796875 
Q 24.46875 -20.796875 20.265625 -20.09375 
Q 16.0625 -19.390625 12.109375 -17.921875 
L 12.109375 -9.1875 
Q 16.0625 -11.328125 19.921875 -12.34375 
Q 23.78125 -13.375 27.78125 -13.375 
Q 36.625 -13.375 41.015625 -8.765625 
Q 45.40625 -4.15625 45.40625 5.171875 
L 45.40625 9.625 
Q 42.625 4.78125 38.28125 2.390625 
Q 33.9375 0 27.875 0 
Q 17.828125 0 11.671875 7.65625 
Q 5.515625 15.328125 5.515625 27.984375 
Q 5.515625 40.671875 11.671875 48.328125 
Q 17.828125 56 27.875 56 
Q 33.9375 56 38.28125 53.609375 
Q 42.625 51.21875 45.40625 46.390625 
L 45.40625 54.6875 
L 54.390625 54.6875 
z
" id="BitstreamVeraSans-Roman-67"/>
     <path id="BitstreamVeraSans-Roman-20"/>
     <path d="M 9.421875 54.6875 
L 18.40625 54.6875 
L 18.40625 0 
L 9.421875 0 
z
M 9.421875 75.984375 
L 18.40625 75.984375 
L 18.40625 64.59375 
L 9.421875 64.59375 
z
" id="BitstreamVeraSans-Roman-69"/>
     <path d="M 2.984375 54.6875 
L 12.5 54.6875 
L 29.59375 8.796875 
L 46.6875 54.6875 
L 56.203125 54.6875 
L 35.6875 0 
L 23.484375 0 
z
" id="BitstreamVeraSans-Roman-76"/>
     <path d="M 50.984375 -16.609375 
L 50.984375 -23.578125 
L -0.984375 -23.578125 
L -0.984375 -16.609375 
z
" id="BitstreamVeraSans-Roman-5f"/>
     <path d="M 56.203125 29.59375 
L 56.203125 25.203125 
L 14.890625 25.203125 
Q 15.484375 15.921875 20.484375 11.0625 
Q 25.484375 6.203125 34.421875 6.203125 
Q 39.59375 6.203125 44.453125 7.46875 
Q 49.3125 8.734375 54.109375 11.28125 
L 54.109375 2.78125 
Q 49.265625 0.734375 44.1875 -0.34375 
Q 39.109375 -1.421875 33.890625 -1.421875 
Q 20.796875 -1.421875 13.15625 6.1875 
Q 5.515625 13.8125 5.515625 26.8125 
Q 5.515625 40.234375 12.765625 48.109375 
Q 20.015625 56 32.328125 56 
Q 43.359375 56 49.78125 48.890625 
Q 56.203125 41.796875 56.203125 29.59375 
M 47.21875 32.234375 
Q 47.125 39.59375 43.09375 43.984375 
Q 39.0625 48.390625 32.421875 48.390625 
Q 24.90625 48.390625 20.390625 44.140625 
Q 15.875 39.890625 15.1875 32.171875 
z
" id="BitstreamVeraSans-Roman-65"/>
     <path d="M 18.109375 8.203125 
L 18.109375 -20.796875 
L 9.078125 -20.796875 
L 9.078125 54.6875 
L 18.109375 54.6875 
L 18.109375 46.390625 
Q 20.953125 51.265625 25.265625 53.625 
Q 29.59375 56 35.59375 56 
Q 45.5625 56 51.78125 48.09375 
Q 58.015625 40.1875 58.015625 27.296875 
Q 58.015625 14.40625 51.78125 6.484375 
Q 45.5625 -1.421875 35.59375 -1.421875 
Q 29.59375 -1.421875 25.265625 0.953125 
Q 20.953125 3.328125 18.109375 8.203125 
M 48.6875 27.296875 
Q 48.6875 37.203125 44.609375 42.84375 
Q 40.53125 48.484375 33.40625 48.484375 
Q 26.265625 48.484375 22.1875 42.84375 
Q 18.109375 37.203125 18.109375 27.296875 
Q 18.109375 17.390625 22.1875 11.75 
Q 26.265625 6.109375 33.40625 6.109375 
Q 40.53125 6.109375 44.609375 11.75 
Q 48.6875 17.390625 48.6875 27.296875 
" id="BitstreamVeraSans-Roman-70"/>
     <path d="M 5.515625 54.6875 
L 48.1875 54.6875 
L 48.1875 46.484375 
L 14.40625 7.171875 
L 48.1875 7.171875 
L 48.1875 0 
L 4.296875 0 
L 4.296875 8.203125 
L 38.09375 47.515625 
L 5.515625 47.515625 
z
" id="BitstreamVeraSans-Roman-7a"/>
     <path d="M 10.6875 12.40625 
L 21 12.40625 
L 21 0 
L 10.6875 0 
z
" id="BitstreamVeraSans-Roman-2e"/>
     <path d="M 9.8125 72.90625 
L 55.90625 72.90625 
L 55.90625 64.59375 
L 19.671875 64.59375 
L 19.671875 43.015625 
L 54.390625 43.015625 
L 54.390625 34.71875 
L 19.671875 34.71875 
L 19.671875 8.296875 
L 56.78125 8.296875 
L 56.78125 0 
L 9.8125 0 
z
" id="BitstreamVeraSans-Roman-45"/>
     <path d="M 54.890625 54.6875 
L 35.109375 28.078125 
L 55.90625 0 
L 45.3125 0 
L 29.390625 21.484375 
L 13.484375 0 
L 2.875 0 
L 24.125 28.609375 
L 4.6875 54.6875 
L 15.28125 54.6875 
L 29.78125 35.203125 
L 44.28125 54.6875 
z
" id="BitstreamVeraSans-Roman-78"/>
     <path d="M 18.3125 70.21875 
L 18.3125 54.6875 
L 36.8125 54.6875 
L 36.8125 47.703125 
L 18.3125 47.703125 
L 18.3125 18.015625 
Q 18.3125 11.328125 20.140625 9.421875 
Q 21.96875 7.515625 27.59375 7.515625 
L 36.8125 7.515625 
L 36.8125 0 
L 27.59375 0 
Q 17.1875 0 13.234375 3.875 
Q 9.28125 7.765625 9.28125 18.015625 
L 9.28125 47.703125 
L 2.6875 47.703125 
L 2.6875 54.6875 
L 9.28125 54.6875 
L 9.28125 70.21875 
z
" id="BitstreamVeraSans-Roman-74"/>
     <path d="M 54.890625 33.015625 
L 54.890625 0 
L 45.90625 0 
L 45.90625 32.71875 
Q 45.90625 40.484375 42.875 44.328125 
Q 39.84375 48.1875 33.796875 48.1875 
Q 26.515625 48.1875 22.3125 43.546875 
Q 18.109375 38.921875 18.109375 30.90625 
L 18.109375 0 
L 9.078125 0 
L 9.078125 54.6875 
L 18.109375 54.6875 
L 18.109375 46.1875 
Q 21.34375 51.125 25.703125 53.5625 
Q 30.078125 56 35.796875 56 
Q 45.21875 56 50.046875 50.171875 
Q 54.890625 44.34375 54.890625 33.015625 
" id="BitstreamVeraSans-Roman-6e"/>
     <path d="M 45.40625 46.390625 
L 45.40625 75.984375 
L 54.390625 75.984375 
L 54.390625 0 
L 45.40625 0 
L 45.40625 8.203125 
Q 42.578125 3.328125 38.25 0.953125 
Q 33.9375 -1.421875 27.875 -1.421875 
Q 17.96875 -1.421875 11.734375 6.484375 
Q 5.515625 14.40625 5.515625 27.296875 
Q 5.515625 40.1875 11.734375 48.09375 
Q 17.96875 56 27.875 56 
Q 33.9375 56 38.25 53.625 
Q 42.578125 51.265625 45.40625 46.390625 
M 14.796875 27.296875 
Q 14.796875 17.390625 18.875 11.75 
Q 22.953125 6.109375 30.078125 6.109375 
Q 37.203125 6.109375 41.296875 11.75 
Q 45.40625 17.390625 45.40625 27.296875 
Q 45.40625 37.203125 41.296875 42.84375 
Q 37.203125 48.484375 30.078125 48.484375 
Q 22.953125 48.484375 18.875 42.84375 
Q 14.796875 37.203125 14.796875 27.296875 
" id="BitstreamVeraSans-Roman-64"/>
     <path d="M 32.171875 -5.078125 
Q 28.375 -14.84375 24.75 -17.8125 
Q 21.140625 -20.796875 15.09375 -20.796875 
L 7.90625 -20.796875 
L 7.90625 -13.28125 
L 13.1875 -13.28125 
Q 16.890625 -13.28125 18.9375 -11.515625 
Q 21 -9.765625 23.484375 -3.21875 
L 25.09375 0.875 
L 2.984375 54.6875 
L 12.5 54.6875 
L 29.59375 11.921875 
L 46.6875 54.6875 
L 56.203125 54.6875 
z
" id="BitstreamVeraSans-Roman-79"/>
     <path d="M 37.109375 75.984375 
L 37.109375 68.5 
L 28.515625 68.5 
Q 23.6875 68.5 21.796875 66.546875 
Q 19.921875 64.59375 19.921875 59.515625 
L 19.921875 54.6875 
L 34.71875 54.6875 
L 34.71875 47.703125 
L 19.921875 47.703125 
L 19.921875 0 
L 10.890625 0 
L 10.890625 47.703125 
L 2.296875 47.703125 
L 2.296875 54.6875 
L 10.890625 54.6875 
L 10.890625 58.5 
Q 10.890625 67.625 15.140625 71.796875 
Q 19.390625 75.984375 28.609375 75.984375 
z
" id="BitstreamVeraSans-Roman-66"/>
     <path d="M 52 44.1875 
Q 55.375 50.25 60.0625 53.125 
Q 64.75 56 71.09375 56 
Q 79.640625 56 84.28125 50.015625 
Q 88.921875 44.046875 88.921875 33.015625 
L 88.921875 0 
L 79.890625 0 
L 79.890625 32.71875 
Q 79.890625 40.578125 77.09375 44.375 
Q 74.3125 48.1875 68.609375 48.1875 
Q 61.625 48.1875 57.5625 43.546875 
Q 53.515625 38.921875 53.515625 30.90625 
L 53.515625 0 
L 44.484375 0 
L 44.484375 32.71875 
Q 44.484375 40.625 41.703125 44.40625 
Q 38.921875 48.1875 33.109375 48.1875 
Q 26.21875 48.1875 22.15625 43.53125 
Q 18.109375 38.875 18.109375 30.90625 
L 18.109375 0 
L 9.078125 0 
L 9.078125 54.6875 
L 18.109375 54.6875 
L 18.109375 46.1875 
Q 21.1875 51.21875 25.484375 53.609375 
Q 29.78125 56 35.6875 56 
Q 41.65625 56 45.828125 52.96875 
Q 50 49.953125 52 44.1875 
" id="BitstreamVeraSans-Roman-6d"/>
     <path d="M 9.421875 75.984375 
L 18.40625 75.984375 
L 18.40625 0 
L 9.421875 0 
z
" id="BitstreamVeraSans-Roman-6c"/>
     <path d="M 54.890625 33.015625 
L 54.890625 0 
L 45.90625 0 
L 45.90625 32.71875 
Q 45.90625 40.484375 42.875 44.328125 
Q 39.84375 48.1875 33.796875 48.1875 
Q 26.515625 48.1875 22.3125 43.546875 
Q 18.109375 38.921875 18.109375 30.90625 
L 18.109375 0 
L 9.078125 0 
L 9.078125 75.984375 
L 18.109375 75.984375 
L 18.109375 46.1875 
Q 21.34375 51.125 25.703125 53.5625 
Q 30.078125 56 35.796875 56 
Q 45.21875 56 50.046875 50.171875 
Q 54.890625 44.34375 54.890625 33.015625 
" id="BitstreamVeraSans-Roman-68"/>
     <path d="M 59.515625 10.40625 
L 59.515625 29.984375 
L 43.40625 29.984375 
L 43.40625 38.09375 
L 69.28125 38.09375 
L 69.28125 6.78125 
Q 63.578125 2.734375 56.6875 0.65625 
Q 49.8125 -1.421875 42 -1.421875 
Q 24.90625 -1.421875 15.25 8.5625 
Q 5.609375 18.5625 5.609375 36.375 
Q 5.609375 54.25 15.25 64.234375 
Q 24.90625 74.21875 42 74.21875 
Q 49.125 74.21875 55.546875 72.453125 
Q 61.96875 70.703125 67.390625 67.28125 
L 67.390625 56.78125 
Q 61.921875 61.421875 55.765625 63.765625 
Q 49.609375 66.109375 42.828125 66.109375 
Q 29.4375 66.109375 22.71875 58.640625 
Q 16.015625 51.171875 16.015625 36.375 
Q 16.015625 21.625 22.71875 14.15625 
Q 29.4375 6.6875 42.828125 6.6875 
Q 48.046875 6.6875 52.140625 7.59375 
Q 56.25 8.5 59.515625 10.40625 
" id="BitstreamVeraSans-Roman-47"/>
     <path d="M 30.609375 48.390625 
Q 23.390625 48.390625 19.1875 42.75 
Q 14.984375 37.109375 14.984375 27.296875 
Q 14.984375 17.484375 19.15625 11.84375 
Q 23.34375 6.203125 30.609375 6.203125 
Q 37.796875 6.203125 41.984375 11.859375 
Q 46.1875 17.53125 46.1875 27.296875 
Q 46.1875 37.015625 41.984375 42.703125 
Q 37.796875 48.390625 30.609375 48.390625 
M 30.609375 56 
Q 42.328125 56 49.015625 48.375 
Q 55.71875 40.765625 55.71875 27.296875 
Q 55.71875 13.875 49.015625 6.21875 
Q 42.328125 -1.421875 30.609375 -1.421875 
Q 18.84375 -1.421875 12.171875 6.21875 
Q 5.515625 13.875 5.515625 27.296875 
Q 5.515625 40.765625 12.171875 48.375 
Q 18.84375 56 30.609375 56 
" id="BitstreamVeraSans-Roman-6f"/>
     <path d="M 34.28125 27.484375 
Q 23.390625 27.484375 19.1875 25 
Q 14.984375 22.515625 14.984375 16.5 
Q 14.984375 11.71875 18.140625 8.90625 
Q 21.296875 6.109375 26.703125 6.109375 
Q 34.1875 6.109375 38.703125 11.40625 
Q 43.21875 16.703125 43.21875 25.484375 
L 43.21875 27.484375 
z
M 52.203125 31.203125 
L 52.203125 0 
L 43.21875 0 
L 43.21875 8.296875 
Q 40.140625 3.328125 35.546875 0.953125 
Q 30.953125 -1.421875 24.3125 -1.421875 
Q 15.921875 -1.421875 10.953125 3.296875 
Q 6 8.015625 6 15.921875 
Q 6 25.140625 12.171875 29.828125 
Q 18.359375 34.515625 30.609375 34.515625 
L 43.21875 34.515625 
L 43.21875 35.40625 
Q 43.21875 41.609375 39.140625 45 
Q 35.0625 48.390625 27.6875 48.390625 
Q 23 48.390625 18.546875 47.265625 
Q 14.109375 46.140625 10.015625 43.890625 
L 10.015625 52.203125 
Q 14.9375 54.109375 19.578125 55.046875 
Q 24.21875 56 28.609375 56 
Q 40.484375 56 46.34375 49.84375 
Q 52.203125 43.703125 52.203125 31.203125 
" id="BitstreamVeraSans-Roman-61"/>
     <path d="M 9.8125 72.90625 
L 23.09375 72.90625 
L 55.421875 11.921875 
L 55.421875 72.90625 
L 64.984375 72.90625 
L 64.984375 0 
L 51.703125 0 
L 19.390625 60.984375 
L 19.390625 0 
L 9.8125 0 
z
" id="BitstreamVeraSans-Roman-4e"/>
     <path d="M 53.515625 70.515625 
L 53.515625 60.890625 
Q 47.90625 63.578125 42.921875 64.890625 
Q 37.9375 66.21875 33.296875 66.21875 
Q 25.25 66.21875 20.875 63.09375 
Q 16.5 59.96875 16.5 54.203125 
Q 16.5 49.359375 19.40625 46.890625 
Q 22.3125 44.4375 30.421875 42.921875 
L 36.375 41.703125 
Q 47.40625 39.59375 52.65625 34.296875 
Q 57.90625 29 57.90625 20.125 
Q 57.90625 9.515625 50.796875 4.046875 
Q 43.703125 -1.421875 29.984375 -1.421875 
Q 24.8125 -1.421875 18.96875 -0.25 
Q 13.140625 0.921875 6.890625 3.21875 
L 6.890625 13.375 
Q 12.890625 10.015625 18.65625 8.296875 
Q 24.421875 6.59375 29.984375 6.59375 
Q 38.421875 6.59375 43.015625 9.90625 
Q 47.609375 13.234375 47.609375 19.390625 
Q 47.609375 24.75 44.3125 27.78125 
Q 41.015625 30.8125 33.5 32.328125 
L 27.484375 33.5 
Q 16.453125 35.6875 11.515625 40.375 
Q 6.59375 45.0625 6.59375 53.421875 
Q 6.59375 63.09375 13.40625 68.65625 
Q 20.21875 74.21875 32.171875 74.21875 
Q 37.3125 74.21875 42.625 73.28125 
Q 47.953125 72.359375 53.515625 70.515625 
" id="BitstreamVeraSans-Roman-53"/>
    </defs>
    <g transform="translate(69.643125 38.2)scale(0.144 -0.144)">
     <use xlink:href="#BitstreamVeraSans-Roman-47"/>
     <use x="77.490234375" xlink:href="#BitstreamVeraSans-Roman-79"/>
     <use x="136.669921875" xlink:href="#BitstreamVeraSans-Roman-72"/>
     <use x="177.751953125" xlink:href="#BitstreamVeraSans-Roman-6f"/>
     <use x="238.93359375" xlink:href="#BitstreamVeraSans-Roman-73"/>
     <use x="291.033203125" xlink:href="#BitstreamVeraSans-Roman-63"/>
     <use x="346.013671875" xlink:href="#BitstreamVeraSans-Roman-6f"/>
     <use x="407.1953125" xlink:href="#BitstreamVeraSans-Roman-70"/>
     <use x="470.671875" xlink:href="#BitstreamVeraSans-Roman-65"/>
     <use x="532.1953125" xlink:href="#BitstreamVeraSans-Roman-20"/>
     <use x="563.982421875" xlink:href="#BitstreamVeraSans-Roman-6f"/>
     <use x="625.1640625" xlink:href="#BitstreamVeraSans-Roman-66"/>
     <use x="660.369140625" xlink:href="#BitstreamVeraSans-Roman-20"/>
     <use x="692.15625" xlink:href="#BitstreamVeraSans-Roman-74"/>
     <use x="731.365234375" xlink:href="#BitstreamVeraSans-Roman-6d"/>
     <use x="828.77734375" xlink:href="#BitstreamVeraSans-Roman-70"/>
     <use x="892.25390625" xlink:href="#BitstreamVeraSans-Roman-2f"/>
     <use x="925.9453125" xlink:href="#BitstreamVeraSans-Roman-65"/>
     <use x="987.453125" xlink:href="#BitstreamVeraSans-Roman-78"/>
     <use x="1046.6328125" xlink:href="#BitstreamVeraSans-Roman-70"/>
     <use x="1110.109375" xlink:href="#BitstreamVeraSans-Roman-2f"/>
     <use x="1143.80078125" xlink:href="#BitstreamVeraSans-Roman-73"/>
     <use x="1195.900390625" xlink:href="#BitstreamVeraSans-Roman-65"/>
     <use x="1257.423828125" xlink:href="#BitstreamVeraSans-Roman-73"/>
     <use x="1309.5234375" xlink:href="#BitstreamVeraSans-Roman-73"/>
     <use x="1361.623046875" xlink:href="#BitstreamVeraSans-Roman-69"/>
     <use x="1389.40625" xlink:href="#BitstreamVeraSans-Roman-6f"/>
     <use x="1450.587890625" xlink:href="#BitstreamVeraSans-Roman-6e"/>
     <use x="1513.966796875" xlink:href="#BitstreamVeraSans-Roman-32"/>
     <use x="1577.58984375" xlink:href="#BitstreamVeraSans-Roman-5f"/>
     <use x="1627.58984375" xlink:href="#BitstreamVeraSans-Roman-45"/>
     <use x="1690.7734375" xlink:href="#BitstreamVeraSans-Roman-34"/>
     <use x="1754.396484375" xlink:href="#BitstreamVeraSans-Roman-2f"/>
     <use x="1788.087890625" xlink:href="#BitstreamVeraSans-Roman-72"/>
     <use x="1829.201171875" xlink:href="#BitstreamVeraSans-Roman-69"/>
     <use x="1856.984375" xlink:href="#BitstreamVeraSans-Roman-67"/>
     <use x="1920.4609375" xlink:href="#BitstreamVeraSans-Roman-68"/>
     <use x="1983.83984375" xlink:href="#BitstreamVeraSans-Roman-74"/>
     <use x="2023.048828125" xlink:href="#BitstreamVeraSans-Roman-53"/>
     <use x="2086.525390625" xlink:href="#BitstreamVeraSans-Roman-65"/>
     <use x="2148.048828125" xlink:href="#BitstreamVeraSans-Roman-6e"/>
     <use x="2211.427734375" xlink:href="#BitstreamVeraSans-Roman-73"/>
     <use x="2263.52734375" xlink:href="#BitstreamVeraSans-Roman-6f"/>
     <use x="2324.708984375" xlink:href="#BitstreamVeraSans-Roman-72"/>
     <use x="2365.822265625" xlink:href="#BitstreamVeraSans-Roman-4e"/>
     <use x="2440.626953125" xlink:href="#BitstreamVeraSans-Roman-6f"/>
     <use x="2501.80859375" xlink:href="#BitstreamVeraSans-Roman-72"/>
     <use x="2542.90625" xlink:href="#BitstreamVeraSans-Roman-6d"/>
     <use x="2640.318359375" xlink:href="#BitstreamVeraSans-Roman-61"/>
     <use x="2701.59765625" xlink:href="#BitstreamVeraSans-Roman-6c"/>
     <use x="2729.380859375" xlink:href="#BitstreamVeraSans-Roman-69"/>
     <use x="2757.1640625" xlink:href="#BitstreamVeraSans-Roman-7a"/>
     <use x="2809.654296875" xlink:href="#BitstreamVeraSans-Roman-65"/>
     <use x="2871.177734375" xlink:href="#BitstreamVeraSans-Roman-64"/>
     <use x="2934.654296875" xlink:href="#BitstreamVeraSans-Roman-2e"/>
     <use x="2966.44140625" xlink:href="#BitstreamVeraSans-Roman-63"/>
     <use x="3021.421875" xlink:href="#BitstreamVeraSans-Roman-73"/>
     <use x="3073.521484375" xlink:href="#BitstreamVeraSans-Roman-76"/>
    </g>
   </g>
   <g id="patch_15">
    <path d="M 430.190625 386.8 
L 513.4 386.8 
Q 516.4 386.8 516.4 383.8 
L 516.4 276.539375 
Q 516.4 273.539375 513.4 273.539375 
L 430.190625 273.539375 
Q 427.190625 273.539375 427.190625 276.539375 
L 427.190625 383.8 
Q 427.190625 386.8 430.190625 386.8 
z
" style="fill:#ffffff;opacity:0.5;stroke:#000000;stroke-linejoin:miter;"/>
   </g>
   <g id="text_16">
    <!-- Gold Standard: -->
    <defs>
     <path d="M 11.71875 12.40625 
L 22.015625 12.40625 
L 22.015625 0 
L 11.71875 0 
z
M 11.71875 51.703125 
L 22.015625 51.703125 
L 22.015625 39.3125 
L 11.71875 39.3125 
z
" id="BitstreamVeraSans-Roman-3a"/>
    </defs>
    <g transform="translate(434.190625 288.1378125)scale(0.1 -0.1)">
     <use xlink:href="#BitstreamVeraSans-Roman-47"/>
     <use x="77.490234375" xlink:href="#BitstreamVeraSans-Roman-6f"/>
     <use x="138.671875" xlink:href="#BitstreamVeraSans-Roman-6c"/>
     <use x="166.455078125" xlink:href="#BitstreamVeraSans-Roman-64"/>
     <use x="229.931640625" xlink:href="#BitstreamVeraSans-Roman-20"/>
     <use x="261.71875" xlink:href="#BitstreamVeraSans-Roman-53"/>
     <use x="325.1953125" xlink:href="#BitstreamVeraSans-Roman-74"/>
     <use x="364.404296875" xlink:href="#BitstreamVeraSans-Roman-61"/>
     <use x="425.68359375" xlink:href="#BitstreamVeraSans-Roman-6e"/>
     <use x="489.0625" xlink:href="#BitstreamVeraSans-Roman-64"/>
     <use x="552.5390625" xlink:href="#BitstreamVeraSans-Roman-61"/>
     <use x="613.818359375" xlink:href="#BitstreamVeraSans-Roman-72"/>
     <use x="654.916015625" xlink:href="#BitstreamVeraSans-Roman-64"/>
     <use x="718.392578125" xlink:href="#BitstreamVeraSans-Roman-3a"/>
    </g>
    <!-- No1: 35-154 -->
    <defs>
     <path d="M 40.578125 39.3125 
Q 47.65625 37.796875 51.625 33 
Q 55.609375 28.21875 55.609375 21.1875 
Q 55.609375 10.40625 48.1875 4.484375 
Q 40.765625 -1.421875 27.09375 -1.421875 
Q 22.515625 -1.421875 17.65625 -0.515625 
Q 12.796875 0.390625 7.625 2.203125 
L 7.625 11.71875 
Q 11.71875 9.328125 16.59375 8.109375 
Q 21.484375 6.890625 26.8125 6.890625 
Q 36.078125 6.890625 40.9375 10.546875 
Q 45.796875 14.203125 45.796875 21.1875 
Q 45.796875 27.640625 41.28125 31.265625 
Q 36.765625 34.90625 28.71875 34.90625 
L 20.21875 34.90625 
L 20.21875 43.015625 
L 29.109375 43.015625 
Q 36.375 43.015625 40.234375 45.921875 
Q 44.09375 48.828125 44.09375 54.296875 
Q 44.09375 59.90625 40.109375 62.90625 
Q 36.140625 65.921875 28.71875 65.921875 
Q 24.65625 65.921875 20.015625 65.03125 
Q 15.375 64.15625 9.8125 62.3125 
L 9.8125 71.09375 
Q 15.4375 72.65625 20.34375 73.4375 
Q 25.25 74.21875 29.59375 74.21875 
Q 40.828125 74.21875 47.359375 69.109375 
Q 53.90625 64.015625 53.90625 55.328125 
Q 53.90625 49.265625 50.4375 45.09375 
Q 46.96875 40.921875 40.578125 39.3125 
" id="BitstreamVeraSans-Roman-33"/>
     <path d="M 4.890625 31.390625 
L 31.203125 31.390625 
L 31.203125 23.390625 
L 4.890625 23.390625 
z
" id="BitstreamVeraSans-Roman-2d"/>
    </defs>
    <g transform="translate(434.190625 299.335625)scale(0.1 -0.1)">
     <use xlink:href="#BitstreamVeraSans-Roman-4e"/>
     <use x="74.8046875" xlink:href="#BitstreamVeraSans-Roman-6f"/>
     <use x="135.986328125" xlink:href="#BitstreamVeraSans-Roman-31"/>
     <use x="199.609375" xlink:href="#BitstreamVeraSans-Roman-3a"/>
     <use x="233.30078125" xlink:href="#BitstreamVeraSans-Roman-20"/>
     <use x="265.087890625" xlink:href="#BitstreamVeraSans-Roman-33"/>
     <use x="328.7109375" xlink:href="#BitstreamVeraSans-Roman-35"/>
     <use x="392.333984375" xlink:href="#BitstreamVeraSans-Roman-2d"/>
     <use x="428.41796875" xlink:href="#BitstreamVeraSans-Roman-31"/>
     <use x="492.041015625" xlink:href="#BitstreamVeraSans-Roman-35"/>
     <use x="555.6640625" xlink:href="#BitstreamVeraSans-Roman-34"/>
    </g>
    <!-- No2: 154-287 -->
    <defs>
     <path d="M 8.203125 72.90625 
L 55.078125 72.90625 
L 55.078125 68.703125 
L 28.609375 0 
L 18.3125 0 
L 43.21875 64.59375 
L 8.203125 64.59375 
z
" id="BitstreamVeraSans-Roman-37"/>
    </defs>
    <g transform="translate(434.190625 310.5334375)scale(0.1 -0.1)">
     <use xlink:href="#BitstreamVeraSans-Roman-4e"/>
     <use x="74.8046875" xlink:href="#BitstreamVeraSans-Roman-6f"/>
     <use x="135.986328125" xlink:href="#BitstreamVeraSans-Roman-32"/>
     <use x="199.609375" xlink:href="#BitstreamVeraSans-Roman-3a"/>
     <use x="233.30078125" xlink:href="#BitstreamVeraSans-Roman-20"/>
     <use x="265.087890625" xlink:href="#BitstreamVeraSans-Roman-31"/>
     <use x="328.7109375" xlink:href="#BitstreamVeraSans-Roman-35"/>
     <use x="392.333984375" xlink:href="#BitstreamVeraSans-Roman-34"/>
     <use x="455.95703125" xlink:href="#BitstreamVeraSans-Roman-2d"/>
     <use x="492.041015625" xlink:href="#BitstreamVeraSans-Roman-32"/>
     <use x="555.6640625" xlink:href="#BitstreamVeraSans-Roman-38"/>
     <use x="619.287109375" xlink:href="#BitstreamVeraSans-Roman-37"/>
    </g>
    <!-- No3: 287-417 -->
    <g transform="translate(434.190625 321.73125)scale(0.1 -0.1)">
     <use xlink:href="#BitstreamVeraSans-Roman-4e"/>
     <use x="74.8046875" xlink:href="#BitstreamVeraSans-Roman-6f"/>
     <use x="135.986328125" xlink:href="#BitstreamVeraSans-Roman-33"/>
     <use x="199.609375" xlink:href="#BitstreamVeraSans-Roman-3a"/>
     <use x="233.30078125" xlink:href="#BitstreamVeraSans-Roman-20"/>
     <use x="265.087890625" xlink:href="#BitstreamVeraSans-Roman-32"/>
     <use x="328.7109375" xlink:href="#BitstreamVeraSans-Roman-38"/>
     <use x="392.333984375" xlink:href="#BitstreamVeraSans-Roman-37"/>
     <use x="455.95703125" xlink:href="#BitstreamVeraSans-Roman-2d"/>
     <use x="492.041015625" xlink:href="#BitstreamVeraSans-Roman-34"/>
     <use x="555.6640625" xlink:href="#BitstreamVeraSans-Roman-31"/>
     <use x="619.287109375" xlink:href="#BitstreamVeraSans-Roman-37"/>
    </g>
    <!-- No4: 418-546 -->
    <g transform="translate(434.190625 332.9290625)scale(0.1 -0.1)">
     <use xlink:href="#BitstreamVeraSans-Roman-4e"/>
     <use x="74.8046875" xlink:href="#BitstreamVeraSans-Roman-6f"/>
     <use x="135.986328125" xlink:href="#BitstreamVeraSans-Roman-34"/>
     <use x="199.609375" xlink:href="#BitstreamVeraSans-Roman-3a"/>
     <use x="233.30078125" xlink:href="#BitstreamVeraSans-Roman-20"/>
     <use x="265.087890625" xlink:href="#BitstreamVeraSans-Roman-34"/>
     <use x="328.7109375" xlink:href="#BitstreamVeraSans-Roman-31"/>
     <use x="392.333984375" xlink:href="#BitstreamVeraSans-Roman-38"/>
     <use x="455.95703125" xlink:href="#BitstreamVeraSans-Roman-2d"/>
     <use x="492.041015625" xlink:href="#BitstreamVeraSans-Roman-35"/>
     <use x="555.6640625" xlink:href="#BitstreamVeraSans-Roman-34"/>
     <use x="619.287109375" xlink:href="#BitstreamVeraSans-Roman-36"/>
    </g>
    <!-- No5: 546-672 -->
    <g transform="translate(434.190625 344.126875)scale(0.1 -0.1)">
     <use xlink:href="#BitstreamVeraSans-Roman-4e"/>
     <use x="74.8046875" xlink:href="#BitstreamVeraSans-Roman-6f"/>
     <use x="135.986328125" xlink:href="#BitstreamVeraSans-Roman-35"/>
     <use x="199.609375" xlink:href="#BitstreamVeraSans-Roman-3a"/>
     <use x="233.30078125" xlink:href="#BitstreamVeraSans-Roman-20"/>
     <use x="265.087890625" xlink:href="#BitstreamVeraSans-Roman-35"/>
     <use x="328.7109375" xlink:href="#BitstreamVeraSans-Roman-34"/>
     <use x="392.333984375" xlink:href="#BitstreamVeraSans-Roman-36"/>
     <use x="455.95703125" xlink:href="#BitstreamVeraSans-Roman-2d"/>
     <use x="492.041015625" xlink:href="#BitstreamVeraSans-Roman-36"/>
     <use x="555.6640625" xlink:href="#BitstreamVeraSans-Roman-37"/>
     <use x="619.287109375" xlink:href="#BitstreamVeraSans-Roman-32"/>
    </g>
    <!-- No6: 672-794 -->
    <defs>
     <path d="M 10.984375 1.515625 
L 10.984375 10.5 
Q 14.703125 8.734375 18.5 7.8125 
Q 22.3125 6.890625 25.984375 6.890625 
Q 35.75 6.890625 40.890625 13.453125 
Q 46.046875 20.015625 46.78125 33.40625 
Q 43.953125 29.203125 39.59375 26.953125 
Q 35.25 24.703125 29.984375 24.703125 
Q 19.046875 24.703125 12.671875 31.3125 
Q 6.296875 37.9375 6.296875 49.421875 
Q 6.296875 60.640625 12.9375 67.421875 
Q 19.578125 74.21875 30.609375 74.21875 
Q 43.265625 74.21875 49.921875 64.515625 
Q 56.59375 54.828125 56.59375 36.375 
Q 56.59375 19.140625 48.40625 8.859375 
Q 40.234375 -1.421875 26.421875 -1.421875 
Q 22.703125 -1.421875 18.890625 -0.6875 
Q 15.09375 0.046875 10.984375 1.515625 
M 30.609375 32.421875 
Q 37.25 32.421875 41.125 36.953125 
Q 45.015625 41.5 45.015625 49.421875 
Q 45.015625 57.28125 41.125 61.84375 
Q 37.25 66.40625 30.609375 66.40625 
Q 23.96875 66.40625 20.09375 61.84375 
Q 16.21875 57.28125 16.21875 49.421875 
Q 16.21875 41.5 20.09375 36.953125 
Q 23.96875 32.421875 30.609375 32.421875 
" id="BitstreamVeraSans-Roman-39"/>
    </defs>
    <g transform="translate(434.190625 355.3246875)scale(0.1 -0.1)">
     <use xlink:href="#BitstreamVeraSans-Roman-4e"/>
     <use x="74.8046875" xlink:href="#BitstreamVeraSans-Roman-6f"/>
     <use x="135.986328125" xlink:href="#BitstreamVeraSans-Roman-36"/>
     <use x="199.609375" xlink:href="#BitstreamVeraSans-Roman-3a"/>
     <use x="233.30078125" xlink:href="#BitstreamVeraSans-Roman-20"/>
     <use x="265.087890625" xlink:href="#BitstreamVeraSans-Roman-36"/>
     <use x="328.7109375" xlink:href="#BitstreamVeraSans-Roman-37"/>
     <use x="392.333984375" xlink:href="#BitstreamVeraSans-Roman-32"/>
     <use x="455.95703125" xlink:href="#BitstreamVeraSans-Roman-2d"/>
     <use x="492.041015625" xlink:href="#BitstreamVeraSans-Roman-37"/>
     <use x="555.6640625" xlink:href="#BitstreamVeraSans-Roman-39"/>
     <use x="619.287109375" xlink:href="#BitstreamVeraSans-Roman-34"/>
    </g>
    <!-- No7: 794-920 -->
    <g transform="translate(434.190625 366.5225)scale(0.1 -0.1)">
     <use xlink:href="#BitstreamVeraSans-Roman-4e"/>
     <use x="74.8046875" xlink:href="#BitstreamVeraSans-Roman-6f"/>
     <use x="135.986328125" xlink:href="#BitstreamVeraSans-Roman-37"/>
     <use x="199.609375" xlink:href="#BitstreamVeraSans-Roman-3a"/>
     <use x="233.30078125" xlink:href="#BitstreamVeraSans-Roman-20"/>
     <use x="265.087890625" xlink:href="#BitstreamVeraSans-Roman-37"/>
     <use x="328.7109375" xlink:href="#BitstreamVeraSans-Roman-39"/>
     <use x="392.333984375" xlink:href="#BitstreamVeraSans-Roman-34"/>
     <use x="455.95703125" xlink:href="#BitstreamVeraSans-Roman-2d"/>
     <use x="492.041015625" xlink:href="#BitstreamVeraSans-Roman-39"/>
     <use x="555.6640625" xlink:href="#BitstreamVeraSans-Roman-32"/>
     <use x="619.287109375" xlink:href="#BitstreamVeraSans-Roman-30"/>
    </g>
    <!-- No8: 921-1054 -->
    <g transform="translate(434.190625 377.7203125)scale(0.1 -0.1)">
     <use xlink:href="#BitstreamVeraSans-Roman-4e"/>
     <use x="74.8046875" xlink:href="#BitstreamVeraSans-Roman-6f"/>
     <use x="135.986328125" xlink:href="#BitstreamVeraSans-Roman-38"/>
     <use x="199.609375" xlink:href="#BitstreamVeraSans-Roman-3a"/>
     <use x="233.30078125" xlink:href="#BitstreamVeraSans-Roman-20"/>
     <use x="265.087890625" xlink:href="#BitstreamVeraSans-Roman-39"/>
     <use x="328.7109375" xlink:href="#BitstreamVeraSans-Roman-32"/>
     <use x="392.333984375" xlink:href="#BitstreamVeraSans-Roman-31"/>
     <use x="455.95703125" xlink:href="#BitstreamVeraSans-Roman-2d"/>
     <use x="492.041015625" xlink:href="#BitstreamVeraSans-Roman-31"/>
     <use x="555.6640625" xlink:href="#BitstreamVeraSans-Roman-30"/>
     <use x="619.287109375" xlink:href="#BitstreamVeraSans-Roman-35"/>
     <use x="682.91015625" xlink:href="#BitstreamVeraSans-Roman-34"/>
    </g>
   </g>
   <g id="legend_1">
    <g id="patch_16">
     <path d="M 450.798437 65.878125 
L 511.4 65.878125 
Q 513.4 65.878125 513.4 63.878125 
L 513.4 50.2 
Q 513.4 48.2 511.4 48.2 
L 450.798437 48.2 
Q 448.798437 48.2 448.798437 50.2 
L 448.798437 63.878125 
Q 448.798437 65.878125 450.798437 65.878125 
z
" style="fill:#ffffff;opacity:0.5;stroke:#000000;stroke-linejoin:miter;"/>
    </g>
    <g id="line2d_30">
     <path d="M 455.798437 56.298438 
L 469.798437 56.298438 
" style="fill:none;stroke:#8b0000;stroke-linecap:square;"/>
    </g>
    <g id="line2d_31"/>
    <g id="text_17">
     <!-- gyroY -->
     <defs>
      <path d="M -0.203125 72.90625 
L 10.40625 72.90625 
L 30.609375 42.921875 
L 50.6875 72.90625 
L 61.28125 72.90625 
L 35.5 34.71875 
L 35.5 0 
L 25.59375 0 
L 25.59375 34.71875 
z
" id="BitstreamVeraSans-Roman-59"/>
     </defs>
     <g transform="translate(480.7984375 59.7984375)scale(0.1 -0.1)">
      <use xlink:href="#BitstreamVeraSans-Roman-67"/>
      <use x="63.4765625" xlink:href="#BitstreamVeraSans-Roman-79"/>
      <use x="122.65625" xlink:href="#BitstreamVeraSans-Roman-72"/>
      <use x="163.73828125" xlink:href="#BitstreamVeraSans-Roman-6f"/>
      <use x="224.919921875" xlink:href="#BitstreamVeraSans-Roman-59"/>
     </g>
    </g>
   </g>
  </g>
 </g>
 <defs>
  <clipPath id="p984191fd67">
   <rect height="345.6" width="446.4" x="72.0" y="43.2"/>
  </clipPath>
 </defs>
</svg>
